<svg width="1030" height="336" viewBox="0 0 1030 336" fill="none" xmlns="http://www.w3.org/2000/svg">
<path d="M442.127 98.608C447.004 99.5173 451.013 101.956 454.155 105.924C457.296 109.892 458.867 114.439 458.867 119.564C458.867 124.193 457.709 128.285 455.395 131.84C453.163 135.312 449.897 138.04 445.599 140.024C441.3 142.008 436.216 143 430.347 143H393.023V56.448H428.735C434.604 56.448 439.647 57.3987 443.863 59.3C448.161 61.2013 451.385 63.8467 453.535 67.236C455.767 70.6253 456.883 74.4693 456.883 78.768C456.883 83.8107 455.519 88.0267 452.791 91.416C450.145 94.8053 446.591 97.2027 442.127 98.608ZM410.383 92.16H426.255C430.388 92.16 433.571 91.2507 435.803 89.432C438.035 87.5307 439.151 84.844 439.151 81.372C439.151 77.9 438.035 75.2133 435.803 73.312C433.571 71.4107 430.388 70.46 426.255 70.46H410.383V92.16ZM427.867 128.864C432.083 128.864 435.348 127.872 437.663 125.888C440.06 123.904 441.259 121.093 441.259 117.456C441.259 113.736 440.019 110.843 437.539 108.776C435.059 106.627 431.711 105.552 427.495 105.552H410.383V128.864H427.867ZM468.238 108.404C468.238 101.46 469.602 95.3013 472.33 89.928C475.141 84.5547 478.902 80.4213 483.614 77.528C488.409 74.6347 493.741 73.188 499.61 73.188C504.736 73.188 509.2 74.2213 513.002 76.288C516.888 78.3547 519.988 80.9587 522.302 84.1V74.304H539.786V143H522.302V132.956C520.07 136.18 516.97 138.867 513.002 141.016C509.117 143.083 504.612 144.116 499.486 144.116C493.7 144.116 488.409 142.628 483.614 139.652C478.902 136.676 475.141 132.501 472.33 127.128C469.602 121.672 468.238 115.431 468.238 108.404ZM522.302 108.652C522.302 104.436 521.476 100.84 519.822 97.864C518.169 94.8053 515.937 92.4907 513.126 90.92C510.316 89.2667 507.298 88.44 504.074 88.44C500.85 88.44 497.874 89.2253 495.146 90.796C492.418 92.3667 490.186 94.6813 488.45 97.74C486.797 100.716 485.97 104.271 485.97 108.404C485.97 112.537 486.797 116.175 488.45 119.316C490.186 122.375 492.418 124.731 495.146 126.384C497.957 128.037 500.933 128.864 504.074 128.864C507.298 128.864 510.316 128.079 513.126 126.508C515.937 124.855 518.169 122.54 519.822 119.564C521.476 116.505 522.302 112.868 522.302 108.652ZM594.81 73.312C602.994 73.312 609.607 75.916 614.65 81.124C619.692 86.2493 622.214 93.4413 622.214 102.7V143H604.854V105.056C604.854 99.6 603.49 95.4253 600.762 92.532C598.034 89.556 594.314 88.068 589.602 88.068C584.807 88.068 581.004 89.556 578.194 92.532C575.466 95.4253 574.102 99.6 574.102 105.056V143H556.742V74.304H574.102V82.86C576.416 79.884 579.351 77.5693 582.906 75.916C586.543 74.18 590.511 73.312 594.81 73.312ZM634.258 108.404C634.258 101.46 635.622 95.3013 638.35 89.928C641.161 84.5547 644.963 80.4213 649.758 77.528C654.553 74.6347 659.885 73.188 665.754 73.188C670.218 73.188 674.475 74.18 678.526 76.164C682.577 78.0653 685.801 80.628 688.198 83.852V51.24H705.806V143H688.198V132.832C686.049 136.221 683.031 138.949 679.146 141.016C675.261 143.083 670.755 144.116 665.63 144.116C659.843 144.116 654.553 142.628 649.758 139.652C644.963 136.676 641.161 132.501 638.35 127.128C635.622 121.672 634.258 115.431 634.258 108.404ZM688.322 108.652C688.322 104.436 687.495 100.84 685.842 97.864C684.189 94.8053 681.957 92.4907 679.146 90.92C676.335 89.2667 673.318 88.44 670.094 88.44C666.87 88.44 663.894 89.2253 661.166 90.796C658.438 92.3667 656.206 94.6813 654.47 97.74C652.817 100.716 651.99 104.271 651.99 108.404C651.99 112.537 652.817 116.175 654.47 119.316C656.206 122.375 658.438 124.731 661.166 126.384C663.977 128.037 666.953 128.864 670.094 128.864C673.318 128.864 676.335 128.079 679.146 126.508C681.957 124.855 684.189 122.54 685.842 119.564C687.495 116.505 688.322 112.868 688.322 108.652ZM731.565 66.12C728.506 66.12 725.944 65.1693 723.877 63.268C721.893 61.284 720.901 58.8453 720.901 55.952C720.901 53.0587 721.893 50.6613 723.877 48.76C725.944 46.776 728.506 45.784 731.565 45.784C734.624 45.784 737.145 46.776 739.129 48.76C741.196 50.6613 742.229 53.0587 742.229 55.952C742.229 58.8453 741.196 61.284 739.129 63.268C737.145 65.1693 734.624 66.12 731.565 66.12ZM740.121 74.304V143H722.761V74.304H740.121ZM752.809 108.652C752.809 101.543 754.255 95.3427 757.149 90.052C760.042 84.6787 764.051 80.5453 769.177 77.652C774.302 74.676 780.171 73.188 786.785 73.188C795.299 73.188 802.326 75.3373 807.865 79.636C813.486 83.852 817.247 89.804 819.149 97.492H800.425C799.433 94.516 797.738 92.2013 795.341 90.548C793.026 88.812 790.133 87.944 786.661 87.944C781.701 87.944 777.774 89.7627 774.881 93.4C771.987 96.9547 770.541 102.039 770.541 108.652C770.541 115.183 771.987 120.267 774.881 123.904C777.774 127.459 781.701 129.236 786.661 129.236C793.687 129.236 798.275 126.095 800.425 119.812H819.149C817.247 127.252 813.486 133.163 807.865 137.544C802.243 141.925 795.217 144.116 786.785 144.116C780.171 144.116 774.302 142.669 769.177 139.776C764.051 136.8 760.042 132.667 757.149 127.376C754.255 122.003 752.809 115.761 752.809 108.652ZM862.371 144.116C855.757 144.116 849.805 142.669 844.515 139.776C839.224 136.8 835.049 132.625 831.991 127.252C829.015 121.879 827.527 115.679 827.527 108.652C827.527 101.625 829.056 95.4253 832.115 90.052C835.256 84.6787 839.513 80.5453 844.887 77.652C850.26 74.676 856.253 73.188 862.867 73.188C869.48 73.188 875.473 74.676 880.847 77.652C886.22 80.5453 890.436 84.6787 893.495 90.052C896.636 95.4253 898.207 101.625 898.207 108.652C898.207 115.679 896.595 121.879 893.371 127.252C890.229 132.625 885.931 136.8 880.475 139.776C875.101 142.669 869.067 144.116 862.371 144.116ZM862.371 128.988C865.512 128.988 868.447 128.244 871.175 126.756C873.985 125.185 876.217 122.871 877.871 119.812C879.524 116.753 880.351 113.033 880.351 108.652C880.351 102.121 878.615 97.12 875.143 93.648C871.753 90.0933 867.579 88.316 862.619 88.316C857.659 88.316 853.484 90.0933 850.095 93.648C846.788 97.12 845.135 102.121 845.135 108.652C845.135 115.183 846.747 120.225 849.971 123.78C853.277 127.252 857.411 128.988 862.371 128.988ZM941.445 144.116C934.831 144.116 928.879 142.669 923.589 139.776C918.298 136.8 914.123 132.625 911.065 127.252C908.089 121.879 906.601 115.679 906.601 108.652C906.601 101.625 908.13 95.4253 911.189 90.052C914.33 84.6787 918.587 80.5453 923.961 77.652C929.334 74.676 935.327 73.188 941.941 73.188C948.554 73.188 954.547 74.676 959.921 77.652C965.294 80.5453 969.51 84.6787 972.569 90.052C975.71 95.4253 977.281 101.625 977.281 108.652C977.281 115.679 975.669 121.879 972.445 127.252C969.303 132.625 965.005 136.8 959.549 139.776C954.175 142.669 948.141 144.116 941.445 144.116ZM941.445 128.988C944.586 128.988 947.521 128.244 950.249 126.756C953.059 125.185 955.291 122.871 956.945 119.812C958.598 116.753 959.425 113.033 959.425 108.652C959.425 102.121 957.689 97.12 954.217 93.648C950.827 90.0933 946.653 88.316 941.693 88.316C936.733 88.316 932.558 90.0933 929.169 93.648C925.862 97.12 924.209 102.121 924.209 108.652C924.209 115.183 925.821 120.225 929.045 123.78C932.351 127.252 936.485 128.988 941.445 128.988ZM1010.23 88.564V121.796C1010.23 124.111 1010.76 125.805 1011.84 126.88C1013 127.872 1014.9 128.368 1017.54 128.368H1025.6V143H1014.69C1000.06 143 992.743 135.891 992.743 121.672V88.564H984.559V74.304H992.743V57.316H1010.23V74.304H1025.6V88.564H1010.23ZM422.266 280.868C416.562 280.868 411.437 279.876 406.89 277.892C402.426 275.825 398.913 273.015 396.35 269.46C393.788 265.823 392.465 261.648 392.382 256.936H404.41C404.824 260.987 406.477 264.417 409.37 267.228C412.346 269.956 416.645 271.32 422.266 271.32C427.64 271.32 431.856 269.997 434.914 267.352C438.056 264.624 439.626 261.152 439.626 256.936C439.626 253.629 438.717 250.943 436.898 248.876C435.08 246.809 432.806 245.239 430.078 244.164C427.35 243.089 423.672 241.932 419.042 240.692C413.338 239.204 408.75 237.716 405.278 236.228C401.889 234.74 398.954 232.425 396.474 229.284C394.077 226.06 392.878 221.761 392.878 216.388C392.878 211.676 394.077 207.501 396.474 203.864C398.872 200.227 402.22 197.416 406.518 195.432C410.9 193.448 415.901 192.456 421.522 192.456C429.624 192.456 436.237 194.481 441.362 198.532C446.57 202.583 449.505 207.956 450.166 214.652H437.766C437.353 211.345 435.617 208.452 432.558 205.972C429.5 203.409 425.449 202.128 420.406 202.128C415.694 202.128 411.85 203.368 408.874 205.848C405.898 208.245 404.41 211.635 404.41 216.016C404.41 219.157 405.278 221.72 407.014 223.704C408.833 225.688 411.024 227.217 413.586 228.292C416.232 229.284 419.91 230.441 424.622 231.764C430.326 233.335 434.914 234.905 438.386 236.476C441.858 237.964 444.834 240.32 447.314 243.544C449.794 246.685 451.034 250.984 451.034 256.44C451.034 260.656 449.918 264.624 447.686 268.344C445.454 272.064 442.148 275.081 437.766 277.396C433.385 279.711 428.218 280.868 422.266 280.868ZM506.824 280.868C498.805 280.868 491.489 279.008 484.876 275.288C478.262 271.485 473.013 266.236 469.128 259.54C465.325 252.761 463.424 245.156 463.424 236.724C463.424 228.292 465.325 220.728 469.128 214.032C473.013 207.253 478.262 202.004 484.876 198.284C491.489 194.481 498.805 192.58 506.824 192.58C514.925 192.58 522.282 194.481 528.896 198.284C535.509 202.004 540.717 207.212 544.52 213.908C548.322 220.604 550.224 228.209 550.224 236.724C550.224 245.239 548.322 252.844 544.52 259.54C540.717 266.236 535.509 271.485 528.896 275.288C522.282 279.008 514.925 280.868 506.824 280.868ZM506.824 271.072C512.858 271.072 518.273 269.667 523.068 266.856C527.945 264.045 531.748 260.036 534.476 254.828C537.286 249.62 538.692 243.585 538.692 236.724C538.692 229.78 537.286 223.745 534.476 218.62C531.748 213.412 527.986 209.403 523.192 206.592C518.397 203.781 512.941 202.376 506.824 202.376C500.706 202.376 495.25 203.781 490.456 206.592C485.661 209.403 481.858 213.412 479.048 218.62C476.32 223.745 474.956 229.78 474.956 236.724C474.956 243.585 476.32 249.62 479.048 254.828C481.858 260.036 485.661 264.045 490.456 266.856C495.333 269.667 500.789 271.072 506.824 271.072ZM613.976 193.572V202.748H576.404V231.888H606.908V241.064H576.404V280H565.12V193.572H613.976ZM680.801 193.572V202.748H657.241V280H645.957V202.748H622.273V193.572H680.801ZM803.315 193.572L778.267 280H765.619L745.531 210.436L724.699 280L712.175 280.124L687.995 193.572H700.023L718.871 266.856L739.703 193.572H752.351L772.191 266.608L791.163 193.572H803.315ZM866.751 260.78H829.055L822.111 280H810.207L841.455 194.068H854.475L885.599 280H873.695L866.751 260.78ZM863.527 251.604L847.903 207.956L832.279 251.604H863.527ZM944.726 280L924.142 244.66H910.502V280H899.218V193.572H927.118C933.649 193.572 939.146 194.688 943.61 196.92C948.157 199.152 951.546 202.169 953.778 205.972C956.01 209.775 957.126 214.115 957.126 218.992C957.126 224.944 955.39 230.193 951.918 234.74C948.529 239.287 943.403 242.304 936.542 243.792L958.242 280H944.726ZM910.502 235.608H927.118C933.235 235.608 937.823 234.12 940.882 231.144C943.941 228.085 945.47 224.035 945.47 218.992C945.47 213.867 943.941 209.899 940.882 207.088C937.906 204.277 933.318 202.872 927.118 202.872H910.502V235.608ZM985.943 202.748V231.64H1017.44V240.94H985.943V270.7H1021.16V280H974.659V193.448H1021.16V202.748H985.943Z" fill="#131313"/>
<circle cx="168" cy="168" r="168" fill="url(#paint0_linear_2032_86)"/>
<mask id="mask0_2032_86" style="mask-type:alpha" maskUnits="userSpaceOnUse" x="0" y="0" width="336" height="336">
<circle cx="168" cy="168" r="168" fill="url(#paint1_linear_2032_86)"/>
</mask>
<g mask="url(#mask0_2032_86)">
<circle cx="195" cy="168" r="168" fill="url(#paint2_linear_2032_86)"/>
<path fill-rule="evenodd" clip-rule="evenodd" d="M338.479 221.591L347 229.38V234V243V308L338.479 299.733C329.976 291.466 312.934 274.931 295.873 266.664C278.812 258.397 261.733 258.397 244.672 260.207C234.226 261.364 223.788 263.171 213.356 264.976C206.749 266.119 200.146 267.262 193.545 268.239C176.521 270.758 159.479 272.018 142.455 268.632C138.078 267.762 133.7 266.574 129.321 265.385C116.667 261.952 104.003 258.516 91.3283 262.727C84.1933 265.098 77.0551 269.865 69.9163 274.632C59.9851 281.264 50.0528 287.897 40.1269 288.08C23.0659 288.316 6.02365 269.42 -2.47885 259.971L-11 250.523V243V234V182L-2.47885 188.815C6.02365 195.63 23.0659 209.26 40.1269 216.074C57.1878 222.889 74.2674 222.889 91.3283 221.397C101.774 220.443 112.212 218.954 122.644 217.466C129.251 216.524 135.854 215.582 142.455 214.776C159.479 212.699 176.521 211.661 193.545 214.452C197.922 215.169 202.3 216.149 206.679 217.128C219.333 219.959 231.997 222.791 244.672 219.32C251.807 217.365 258.945 213.436 266.084 209.506C276.015 204.039 285.947 198.572 295.873 198.421C312.934 198.226 329.976 213.803 338.479 221.591Z" fill="#F27445"/>
<path d="M0.0218131 18.8525L8.03178 29.3966C16.0242 39.9408 32.0442 61.0291 48.0564 60.7463C64.0684 60.3756 80.0728 38.7218 96.0779 32.3707C112.083 26.0196 128.089 35.1471 144.071 38.91C160.053 42.6728 176.046 41.2467 192.02 38.4136C207.994 35.5804 223.984 31.5159 239.994 29.3863C256.005 27.3446 272.035 27.3256 288.058 36.5411C304.081 45.7566 320.098 64.2065 328.089 73.4315L336.097 82.6564L336 -0.000634196L328.002 0.00881806C320.022 0.0182496 304.027 0.0371541 288.015 0.0560793C272.002 0.0750045 255.972 0.0939504 239.96 0.112876C223.947 0.131801 207.952 0.150705 191.975 0.169589C175.997 0.188473 160.002 0.207377 144.025 0.226261C128.047 0.245145 112.052 0.264049 96.0399 0.282975C80.0274 0.3019 63.9975 0.320846 47.985 0.339771C31.9725 0.358696 15.9775 0.377601 7.99749 0.387032L0 0.396484L0.0218131 18.8525Z" fill="#FC8D64"/>
<path d="M-10.9984 250.904L-2.49712 252.663C5.98549 254.422 22.988 257.94 40.0483 258.097C57.1087 258.24 74.2267 255.036 91.2981 254.239C108.369 253.442 125.394 255.078 142.409 255.871C159.425 256.664 176.469 256.641 193.496 256.397C210.524 256.152 227.573 255.714 244.636 255.581C261.7 255.461 278.778 255.66 295.821 257.311C312.864 258.962 329.871 262.064 338.356 263.616L346.86 265.167L347.011 252.168L338.491 252.069C329.989 251.97 312.948 251.771 295.888 251.573C278.828 251.374 261.75 251.176 244.69 250.977C227.63 250.779 210.589 250.58 193.566 250.382C176.544 250.184 159.503 249.986 142.48 249.788C125.458 249.59 108.417 249.391 91.3568 249.193C74.297 248.994 57.2186 248.795 40.1588 248.597C23.099 248.398 6.05789 248.2 -2.44403 248.101L-10.9646 248.002L-10.9984 250.904Z" fill="#C75D36"/>
<path d="M347.016 251.71L338.512 250.207C330.027 248.703 313.018 245.696 295.958 245.533C278.898 245.381 261.786 248.061 244.716 248.705C227.646 249.349 210.62 247.934 193.603 247.233C176.586 246.531 159.543 246.52 142.516 246.697C125.489 246.873 108.442 247.213 91.3788 247.295C74.3159 247.366 57.2374 247.167 40.1919 245.74C23.1465 244.313 6.13393 241.657 -2.35369 240.329L-10.86 239.001L-10.988 250L-2.46739 250.099C6.03453 250.198 23.0757 250.396 40.1354 250.595C57.1952 250.794 74.2737 250.992 91.3334 251.191C108.393 251.389 125.434 251.588 142.457 251.786C159.479 251.984 176.52 252.182 193.543 252.38C210.565 252.578 227.607 252.777 244.666 252.975C261.726 253.174 278.805 253.373 295.864 253.571C312.924 253.77 329.965 253.968 338.467 254.067L346.988 254.166L347.016 251.71Z" fill="#C8643F"/>
<path d="M-10.8827 241.904L-2.3814 243.663C6.10121 245.422 23.1037 248.94 40.164 249.097C57.2244 249.24 74.3424 246.036 91.4138 245.239C108.485 244.442 125.51 246.078 142.525 246.871C159.541 247.664 176.584 247.641 193.612 247.397C210.64 247.152 227.688 246.714 244.752 246.581C261.815 246.461 278.894 246.66 295.937 248.311C312.98 249.962 329.987 253.064 338.472 254.616L346.976 256.167L347.127 243.168L338.606 243.069C330.104 242.97 313.063 242.771 296.003 242.573C278.944 242.374 261.865 242.176 244.805 241.977C227.746 241.779 210.705 241.58 193.682 241.382C176.66 241.184 159.618 240.986 142.596 240.788C125.573 240.59 108.532 240.391 91.4725 240.193C74.4127 239.994 57.3343 239.795 40.2745 239.597C23.2148 239.398 6.17362 239.2 -2.32831 239.101L-10.8489 239.002L-10.8827 241.904Z" fill="#F6814D"/>
<path d="M347.132 242.71L338.628 241.207C330.142 239.703 313.134 236.696 296.074 236.533C279.013 236.381 261.901 239.061 244.832 239.705C227.762 240.349 210.735 238.934 193.719 238.233C176.702 237.531 159.659 237.52 142.632 237.697C125.605 237.873 108.558 238.213 91.4945 238.295C74.4316 238.366 57.3531 238.167 40.3077 236.74C23.2622 235.313 6.24965 232.657 -2.23797 231.329L-10.7442 230.001L-10.8722 241L-2.35167 241.099C6.15025 241.198 23.1914 241.396 40.2512 241.595C57.3109 241.794 74.3894 241.992 91.4492 242.191C108.509 242.389 125.55 242.588 142.573 242.786C159.595 242.984 176.636 243.182 193.659 243.38C210.681 243.578 227.722 243.777 244.782 243.975C261.842 244.174 278.92 244.373 295.98 244.571C313.04 244.77 330.081 244.968 338.583 245.067L347.104 245.166L347.132 242.71Z" fill="#F6814D"/>
<path d="M-0.000244141 124C61.8957 108.159 133 121.999 133.5 124.501C134 127.002 141 135 134 135C127 135 50.8532 118.072 -0.000244141 135V124Z" fill="#FE9E60"/>
<path d="M324.207 136.736C267.233 165.65 194.82 167.591 193.788 165.259C192.757 162.926 184.403 157.031 191.019 155.119C197.635 153.206 273.819 152.768 320.5 126.498C324 125.498 327 135 324.207 136.736Z" fill="#FE9E60"/>
</g>
<defs>
<linearGradient id="paint0_linear_2032_86" x1="168" y1="0" x2="168" y2="361" gradientUnits="userSpaceOnUse">
<stop stop-color="#F16C3B"/>
<stop offset="1" stop-color="#FFA263"/>
</linearGradient>
<linearGradient id="paint1_linear_2032_86" x1="168" y1="0" x2="168" y2="336" gradientUnits="userSpaceOnUse">
<stop stop-color="#F27344"/>
<stop offset="1" stop-color="#FFA263"/>
</linearGradient>
<linearGradient id="paint2_linear_2032_86" x1="93.9998" y1="45.5" x2="265.5" y2="221.5" gradientUnits="userSpaceOnUse">
<stop stop-color="#F16C3B"/>
<stop offset="1" stop-color="#FFA263"/>
</linearGradient>
</defs>
</svg>
