<svg width="336" height="336" viewBox="0 0 336 336" fill="none" xmlns="http://www.w3.org/2000/svg">
<circle cx="168" cy="168" r="168" fill="url(#paint0_linear_2025_2)"/>
<mask id="mask0_2025_2" style="mask-type:alpha" maskUnits="userSpaceOnUse" x="0" y="0" width="336" height="336">
<circle cx="168" cy="168" r="168" fill="url(#paint1_linear_2025_2)"/>
</mask>
<g mask="url(#mask0_2025_2)">
<circle cx="195" cy="168" r="168" fill="url(#paint2_linear_2025_2)"/>
<path fill-rule="evenodd" clip-rule="evenodd" d="M338.479 221.591L347 229.38V234V243V308L338.479 299.733C329.976 291.466 312.934 274.931 295.873 266.664C278.812 258.397 261.733 258.397 244.672 260.207C234.226 261.364 223.788 263.171 213.356 264.976C206.75 266.119 200.146 267.262 193.545 268.238C176.521 270.758 159.479 272.018 142.455 268.632C138.078 267.762 133.7 266.574 129.321 265.385C116.667 261.952 104.003 258.516 91.3283 262.727C84.1933 265.098 77.0551 269.865 69.9162 274.632C59.985 281.264 50.0528 287.897 40.1269 288.08C23.0659 288.316 6.02365 269.42 -2.47885 259.971L-11 250.523V243V234V182L-2.47885 188.815C6.02365 195.63 23.0659 209.26 40.1269 216.074C57.1878 222.889 74.2674 222.889 91.3283 221.397C101.774 220.443 112.212 218.954 122.644 217.466C129.251 216.524 135.854 215.582 142.455 214.776C159.479 212.699 176.521 211.661 193.545 214.452C197.922 215.169 202.3 216.149 206.679 217.128C219.333 219.959 231.997 222.791 244.672 219.32C251.807 217.365 258.945 213.436 266.084 209.506C276.015 204.039 285.947 198.572 295.873 198.421C312.934 198.226 329.976 213.803 338.479 221.591Z" fill="#F27445"/>
<path d="M0.0218131 18.8525L8.03178 29.3966C16.0242 39.9408 32.0442 61.0291 48.0564 60.7463C64.0684 60.3756 80.0728 38.7218 96.0779 32.3707C112.083 26.0196 128.089 35.1471 144.071 38.91C160.053 42.6728 176.046 41.2467 192.02 38.4136C207.994 35.5804 223.984 31.5159 239.994 29.3863C256.005 27.3446 272.035 27.3256 288.058 36.5411C304.081 45.7566 320.098 64.2065 328.089 73.4315L336.097 82.6564L336 -0.000634193L328.002 0.00881805C320.022 0.0182496 304.027 0.0371541 288.015 0.0560793C272.002 0.0750045 255.972 0.0939503 239.96 0.112876C223.947 0.131801 207.952 0.150705 191.975 0.169589C175.997 0.188473 160.002 0.207377 144.025 0.226261C128.047 0.245145 112.052 0.264049 96.0399 0.282975C80.0274 0.3019 63.9975 0.320846 47.985 0.339771C31.9725 0.358696 15.9775 0.377601 7.99749 0.387032L0 0.396484L0.0218131 18.8525Z" fill="#FC8D64"/>
<path d="M-10.9984 250.904L-2.49711 252.663C5.9855 254.422 22.988 257.94 40.0483 258.097C57.1087 258.24 74.2267 255.036 91.2981 254.239C108.369 253.442 125.394 255.078 142.409 255.871C159.425 256.664 176.469 256.641 193.496 256.397C210.524 256.152 227.573 255.714 244.636 255.581C261.7 255.461 278.778 255.66 295.821 257.311C312.864 258.962 329.871 262.064 338.356 263.616L346.86 265.167L347.011 252.168L338.491 252.069C329.989 251.97 312.948 251.771 295.888 251.573C278.828 251.374 261.75 251.176 244.69 250.977C227.63 250.779 210.589 250.58 193.566 250.382C176.544 250.184 159.503 249.986 142.48 249.788C125.458 249.59 108.417 249.391 91.3568 249.193C74.297 248.994 57.2186 248.795 40.1588 248.597C23.099 248.398 6.05791 248.2 -2.44402 248.101L-10.9646 248.002L-10.9984 250.904Z" fill="#C75D36"/>
<path d="M347.016 251.71L338.512 250.207C330.027 248.703 313.018 245.696 295.958 245.533C278.898 245.381 261.786 248.061 244.716 248.705C227.647 249.349 210.62 247.934 193.603 247.233C176.586 246.531 159.543 246.52 142.516 246.697C125.489 246.873 108.442 247.213 91.3788 247.295C74.3159 247.366 57.2375 247.167 40.192 245.74C23.1465 244.313 6.134 241.657 -2.35363 240.329L-10.8599 239.001L-10.9879 250L-2.46733 250.099C6.03459 250.198 23.0757 250.396 40.1355 250.595C57.1953 250.794 74.2737 250.992 91.3335 251.191C108.393 251.389 125.434 251.588 142.457 251.786C159.479 251.984 176.521 252.182 193.543 252.38C210.566 252.578 227.607 252.777 244.666 252.975C261.726 253.174 278.805 253.373 295.864 253.571C312.924 253.77 329.965 253.968 338.467 254.067L346.988 254.166L347.016 251.71Z" fill="#C8643F"/>
<path d="M-10.8825 241.904L-2.38125 243.663C6.10136 245.422 23.1039 248.94 40.1641 249.097C57.2246 249.24 74.3426 246.036 91.414 245.239C108.485 244.442 125.51 246.078 142.525 246.871C159.541 247.664 176.585 247.641 193.612 247.397C210.64 247.152 227.688 246.714 244.752 246.581C261.816 246.461 278.894 246.66 295.937 248.311C312.98 249.962 329.987 253.064 338.472 254.616L346.976 256.167L347.127 243.168L338.606 243.069C330.105 242.97 313.063 242.771 296.004 242.573C278.944 242.374 261.865 242.176 244.806 241.977C227.746 241.779 210.705 241.58 193.682 241.382C176.66 241.184 159.619 240.986 142.596 240.788C125.574 240.59 108.532 240.391 91.4727 240.193C74.4129 239.994 57.3345 239.795 40.2747 239.597C23.2149 239.398 6.17377 239.2 -2.32816 239.101L-10.8487 239.002L-10.8825 241.904Z" fill="#F6814D"/>
<path d="M347.132 242.71L338.628 241.207C330.143 239.703 313.134 236.696 296.074 236.533C279.014 236.381 261.902 239.061 244.832 239.705C227.762 240.349 210.735 238.934 193.719 238.233C176.702 237.531 159.659 237.52 142.632 237.697C125.605 237.873 108.558 238.213 91.4947 238.295C74.4318 238.366 57.3534 238.167 40.3079 236.74C23.2624 235.313 6.2499 232.657 -2.23772 231.329L-10.744 230.001L-10.872 241L-2.35143 241.099C6.1505 241.198 23.1916 241.396 40.2514 241.595C57.3112 241.794 74.3896 241.992 91.4494 242.191C108.509 242.389 125.55 242.588 142.573 242.786C159.595 242.984 176.636 243.182 193.659 243.38C210.681 243.578 227.723 243.777 244.782 243.975C261.842 244.174 278.921 244.373 295.98 244.571C313.04 244.77 330.081 244.968 338.583 245.067L347.104 245.166L347.132 242.71Z" fill="#F6814D"/>
<path d="M0 124C61.8959 108.159 133 121.999 133.5 124.501C134 127.002 141 135 134 135C127 135 50.8534 118.072 0 135V124Z" fill="#FE9E60"/>
<path d="M324.207 136.736C267.233 165.65 194.82 167.591 193.789 165.259C192.757 162.926 184.403 157.031 191.019 155.119C197.635 153.206 273.82 152.768 320.5 126.498C324 125.498 327 135 324.207 136.736Z" fill="#FE9E60"/>
</g>
<defs>
<linearGradient id="paint0_linear_2025_2" x1="168" y1="0" x2="168" y2="361" gradientUnits="userSpaceOnUse">
<stop stop-color="#F16C3B"/>
<stop offset="1" stop-color="#FFA263"/>
</linearGradient>
<linearGradient id="paint1_linear_2025_2" x1="168" y1="0" x2="168" y2="336" gradientUnits="userSpaceOnUse">
<stop stop-color="#F27344"/>
<stop offset="1" stop-color="#FFA263"/>
</linearGradient>
<linearGradient id="paint2_linear_2025_2" x1="94" y1="45.5" x2="265.5" y2="221.5" gradientUnits="userSpaceOnUse">
<stop stop-color="#F16C3B"/>
<stop offset="1" stop-color="#FFA263"/>
</linearGradient>
</defs>
</svg>
